<?xml version="1.0" encoding="UTF-8" standalone="no"?>
<!DOCTYPE svg PUBLIC "-//W3C//DTD SVG 1.1//EN" "http://www.w3.org/Graphics/SVG/1.1/DTD/svg11.dtd">
<svg width="100%" height="100%" viewBox="0 0 32 32" version="1.1" xmlns="http://www.w3.org/2000/svg" xmlns:xlink="http://www.w3.org/1999/xlink" xml:space="preserve" xmlns:serif="http://www.serif.com/" style="fill-rule:evenodd;clip-rule:evenodd;stroke-linejoin:round;stroke-miterlimit:2;">
    <g>
        <g>
            <path d="M22,8C21.447,8 21,7.553 21,7C21,6.447 21.447,6 22,6C22.553,6 23,6.447 23,7C23,7.553 22.553,8 22,8ZM16,12C18.209,12 20,13.791 20,16C20,18.209 18.209,20 16,20C13.791,20 12,18.209 12,16C12,13.791 13.791,12 16,12ZM16,22C12.691,22 10,19.309 10,16C10,12.691 12.691,10 16,10C19.309,10 22,12.691 22,16C22,19.309 19.309,22 16,22M9,7C9,6.447 9.447,6 10,6C10.553,6 11,6.447 11,7C11,7.553 10.553,8 10,8C9.447,8 9,7.553 9,7M16,6C16.553,6 17,6.447 17,7C17,7.553 16.553,8 16,8C15.447,8 15,7.553 15,7C15,6.447 15.447,6 16,6M24,4L8,4C5.8,4 4,5.8 4,8L4,24C4,26.2 5.8,28 8,28L24,28C26.2,28 28,26.2 28,24L28,8C28,5.8 26.2,4 24,4"/>
        </g>
    </g>
</svg>
