<?xml version="1.0" encoding="UTF-8" standalone="no"?>
<!DOCTYPE svg PUBLIC "-//W3C//DTD SVG 1.1//EN" "http://www.w3.org/Graphics/SVG/1.1/DTD/svg11.dtd">
<svg width="100%" height="100%" viewBox="0 0 1024 1024" version="1.1" xmlns="http://www.w3.org/2000/svg" xmlns:xlink="http://www.w3.org/1999/xlink" xml:space="preserve" xmlns:serif="http://www.serif.com/" style="fill-rule:evenodd;clip-rule:evenodd;stroke-linejoin:round;stroke-miterlimit:2;">
    <rect id="ArtBoard1" x="0" y="0" width="1024" height="1024" style="fill:none;"/>
    <g id="ArtBoard11" serif:id="ArtBoard1">
        <g transform="matrix(1.04529,0,0,0.837656,-29.2952,175.917)">
            <path d="M890.327,410.171C862.849,410.209 842.597,392.948 825.128,369.063C801.759,337.112 783.183,294.215 764.163,251.644C741.901,201.818 719.168,152.339 691.415,115.109C657.875,70.116 617.367,41.508 564.403,41.979C527.169,42.311 495.844,62.015 469.273,97.696C438.553,138.949 414.192,205.035 392.77,281.86C364.36,383.751 339.958,505.775 302.612,601.645C281.456,655.953 256.859,701.824 221.967,724.859C202.132,737.954 194.548,768.681 205.042,793.433C215.536,818.185 240.16,827.649 259.995,814.553C308.678,782.413 346.228,721.783 375.746,646.009C414.405,546.77 440.163,420.677 469.571,315.206C484.18,262.814 499.418,215.885 518.788,182.247C531.624,159.956 545.529,143.624 564.983,143.45C593.171,143.199 614.025,160.277 631.875,184.223C655.509,215.927 674.181,258.627 693.138,301.057C715.337,350.743 737.791,400.177 765.065,437.468C798.241,482.83 838.23,511.716 890.415,511.645C912.855,511.615 931.054,488.856 931.029,460.853C931.005,432.851 912.767,410.141 890.327,410.171Z"/>
        </g>
    </g>
</svg>
